<svg width="134" height="132" viewBox="0 0 134 132" fill="none" xmlns="http://www.w3.org/2000/svg">
<path d="M69.8474 72.6771C70.1042 68.2771 72.2929 64.3941 75.5982 61.6441C79.0652 58.8049 83.4402 57.2657 87.9486 57.2991C92.6944 57.2991 97.055 58.9491 100.293 61.6441C103.599 64.3941 105.782 68.2771 106.033 72.6716C106.284 77.1981 104.442 81.3946 101.203 84.5131C97.633 87.8632 92.8794 89.7134 87.9486 89.6721C83.0139 89.7163 78.2558 87.8659 74.6826 84.5131C71.4442 81.3946 69.5962 77.1981 69.8474 72.6771ZM41.0374 81.5706C41.0709 83.2976 41.6292 86.6416 42.4667 89.2596C44.2794 94.8899 47.3144 100.064 51.361 104.423C55.7021 109.131 61.005 112.882 66.9217 115.429C73.3588 118.223 80.3223 119.648 87.3567 119.609C94.3895 119.616 101.346 118.17 107.775 115.363C113.684 112.786 118.981 109.02 123.325 104.308C127.373 99.9402 130.406 94.7562 132.213 89.1166C133.949 83.6532 134.426 77.8774 133.609 72.2096C132.829 66.7788 130.896 61.5709 127.936 56.9251C125.194 52.6044 121.693 48.7994 117.596 45.6886H117.607L75.7434 14.0251L75.6317 13.9426C72.8847 11.8636 68.2673 11.8746 65.2467 13.9536C62.1927 16.0546 61.8465 19.5361 64.56 21.7361L64.5544 21.7416L82.0079 35.7281L28.7987 35.7831H28.7262C24.3265 35.7886 20.0999 38.6321 19.2624 42.2291C18.4026 45.8866 21.3841 48.9226 25.9624 48.9391V48.9501L52.9299 48.8951L4.80158 85.2886L4.61175 85.4261C0.0725001 88.8471 -1.39033 94.5451 1.46833 98.1476C4.37167 101.816 10.5412 101.822 15.1307 98.1696L41.3947 77.0001C41.3947 77.0001 41.0039 79.8601 41.0374 81.5706ZM108.54 91.1461C103.124 96.5801 95.5531 99.6601 87.3512 99.6711C79.1437 99.6931 71.5671 96.6351 66.1512 91.2121C63.5926 88.6841 61.6194 85.6408 60.3669 82.2911C59.2169 79.1402 58.7625 75.784 59.034 72.4464C59.3056 69.1089 60.2967 65.8668 61.9414 62.9366C63.5767 60.0397 65.7622 57.4797 68.379 55.3961C73.6385 51.1721 80.3329 48.8896 87.34 48.8786C94.3527 48.8676 101.047 51.1336 106.312 55.3411C108.992 57.4916 111.17 60.0381 112.744 62.8596C114.371 65.7521 115.364 68.9486 115.659 72.2426C115.961 75.619 115.506 79.0195 114.324 82.2031C113.076 85.5602 111.099 88.6112 108.54 91.1461Z" fill="black"/>
</svg>
