<svg width="116" height="119" viewBox="0 0 116 119" fill="none" xmlns="http://www.w3.org/2000/svg">
<path d="M36.2598 0H48.7201V5.34508H41.4701V10.6902H48.7201V16.0353H36.2598V0ZM51.2093 0H63.6744V4.65092H56.4244V5.57813H63.6744V16.2683H51.2093V11.3893H58.4593V10.4571H51.2093V0ZM66.1684 0H78.6239V4.65092H71.3739V5.57813H78.6239V16.2683H66.1684V11.3893H73.4184V10.4571H66.1684V0Z" fill="black"/>
<path fill-rule="evenodd" clip-rule="evenodd" d="M57.9565 119L24.3938 109.44L14.5 23.3884H101.5L91.611 109.43L57.9565 119ZM34.0605 62.3411L34.9837 72.8924H70.6392L69.4453 86.5774L57.971 89.7607H57.9613L46.5063 86.5873L45.7717 78.173H35.4428L36.8832 94.7438L57.9565 100.743L79.0637 94.7438L81.635 65.1723L81.8863 62.3411L83.7423 40.9756H32.2093L33.147 51.5319H72.471L71.5333 62.3411H34.0605Z" fill="black"/>
</svg>
