<svg width="152" height="149" viewBox="0 0 152 149" fill="none" xmlns="http://www.w3.org/2000/svg">
<path d="M76 74.5C76 79.4397 78.0018 84.177 81.565 87.6699C85.1282 91.1627 89.9609 93.125 95 93.125C100.039 93.125 104.872 91.1627 108.435 87.6699C111.998 84.177 114 79.4397 114 74.5C114 69.5603 111.998 64.823 108.435 61.3301C104.872 57.8373 100.039 55.875 95 55.875C89.9609 55.875 85.1282 57.8373 81.565 61.3301C78.0018 64.823 76 69.5603 76 74.5Z" stroke="black" stroke-width="6" stroke-linecap="round" stroke-linejoin="round"/>
<path d="M38 37.25C38 32.3103 40.0018 27.573 43.565 24.0801C47.1282 20.5873 51.9609 18.625 57 18.625H95C100.039 18.625 104.872 20.5873 108.435 24.0801C111.998 27.573 114 32.3103 114 37.25C114 42.1897 111.998 46.927 108.435 50.4199C104.872 53.9127 100.039 55.875 95 55.875H57C51.9609 55.875 47.1282 53.9127 43.565 50.4199C40.0018 46.927 38 42.1897 38 37.25Z" stroke="black" stroke-width="6" stroke-linecap="round" stroke-linejoin="round"/>
<path d="M57 55.875C51.9609 55.875 47.1282 57.8373 43.565 61.3301C40.0018 64.823 38 69.5603 38 74.5C38 79.4397 40.0018 84.177 43.565 87.6699C47.1282 91.1627 51.9609 93.125 57 93.125M57 93.125H76M57 93.125C53.2422 93.125 49.5687 94.2173 46.4442 96.2639C43.3196 98.3104 40.8844 101.219 39.4463 104.623C38.0082 108.026 37.632 111.771 38.3651 115.384C39.0982 118.996 40.9078 122.315 43.565 124.92C46.2222 127.525 49.6077 129.298 53.2933 130.017C56.9789 130.736 60.7992 130.367 64.271 128.957C67.7428 127.548 70.7102 125.16 72.7979 122.097C74.8857 119.035 76 115.434 76 111.75V18.625" stroke="black" stroke-width="6" stroke-linecap="round" stroke-linejoin="round"/>
</svg>
