<svg width="140" height="140" viewBox="0 0 140 140" fill="none" xmlns="http://www.w3.org/2000/svg">
<path d="M15.1667 61.775L48.8834 28L58.7417 37.9167C57.3417 42.875 59.6167 48.3 64.1667 50.925V83.2417C60.6667 85.225 58.3334 89.0167 58.3334 93.3334C58.3334 96.4276 59.5625 99.395 61.7505 101.583C63.9384 103.771 66.9058 105 70 105C73.0942 105 76.0617 103.771 78.2496 101.583C80.4375 99.395 81.6667 96.4276 81.6667 93.3334C81.6667 89.0167 79.3334 85.225 75.8334 83.2417V54.8917L87.9084 67.0834C87.5 67.9584 87.5 68.95 87.5 70C87.5 73.0942 88.7292 76.0617 90.9171 78.2496C93.105 80.4375 96.0725 81.6667 99.1667 81.6667C102.261 81.6667 105.228 80.4375 107.416 78.2496C109.604 76.0617 110.833 73.0942 110.833 70C110.833 66.9058 109.604 63.9384 107.416 61.7505C105.228 59.5625 102.261 58.3334 99.1667 58.3334C98.1167 58.3334 97.125 58.3334 96.25 58.7417L81.2584 43.75C81.9827 41.0482 81.7019 38.1754 80.4681 35.665C79.2344 33.1546 77.1315 31.1772 74.55 30.1C72.0417 29.1667 69.4167 28.9334 67.0834 29.575L57.1667 19.7167L61.775 15.1667C66.325 10.5584 73.675 10.5584 78.225 15.1667L124.833 61.775C129.442 66.325 129.442 73.675 124.833 78.225L78.225 124.833C73.675 129.442 66.325 129.442 61.775 124.833L15.1667 78.225C10.5584 73.675 10.5584 66.325 15.1667 61.775Z" fill="black"/>
</svg>
