<svg width="46" height="46" viewBox="0 0 46 46" fill="none" xmlns="http://www.w3.org/2000/svg">
<path d="M22.9999 3.83334C20.4829 3.83334 17.9906 4.3291 15.6652 5.29232C13.3397 6.25553 11.2268 7.66734 9.44704 9.44713C5.85259 13.0416 3.83325 17.9167 3.83325 23C3.83325 31.4717 9.33409 38.6592 16.9433 41.2083C17.9016 41.3617 18.2083 40.7675 18.2083 40.25V37.0108C12.8991 38.1608 11.7683 34.4425 11.7683 34.4425C10.8866 32.2192 9.64075 31.625 9.64075 31.625C7.89659 30.4367 9.77492 30.475 9.77492 30.475C11.6916 30.6092 12.7074 32.4492 12.7074 32.4492C14.3749 35.3625 17.1924 34.5 18.2849 34.04C18.4574 32.7942 18.9558 31.9508 19.4924 31.4717C15.2374 30.9925 10.7716 29.3442 10.7716 22.0417C10.7716 19.9142 11.4999 18.2083 12.7458 16.8475C12.5541 16.3683 11.8833 14.375 12.9374 11.7875C12.9374 11.7875 14.5474 11.27 18.2083 13.7425C19.7224 13.3208 21.3708 13.11 22.9999 13.11C24.6291 13.11 26.2774 13.3208 27.7916 13.7425C31.4524 11.27 33.0624 11.7875 33.0624 11.7875C34.1166 14.375 33.4458 16.3683 33.2541 16.8475C34.4999 18.2083 35.2282 19.9142 35.2282 22.0417C35.2282 29.3633 30.7433 30.9733 26.4691 31.4525C27.1591 32.0467 27.7916 33.2158 27.7916 34.9983V40.25C27.7916 40.7675 28.0983 41.3808 29.0758 41.2083C36.6849 38.64 42.1666 31.4717 42.1666 23C42.1666 20.483 41.6708 17.9907 40.7076 15.6652C39.7444 13.3398 38.3326 11.2269 36.5528 9.44713C34.773 7.66734 32.6601 6.25553 30.3347 5.29232C28.0093 4.3291 25.5169 3.83334 22.9999 3.83334Z" fill="black"/>
</svg>
