<svg width="119" height="119" viewBox="0 0 119 119" fill="none" xmlns="http://www.w3.org/2000/svg">
<g clip-path="url(#clip0_333_134)">
<mask id="mask0_333_134" style="mask-type:luminance" maskUnits="userSpaceOnUse" x="0" y="0" width="119" height="119">
<path d="M0 0H119V119H0V0Z" fill="white"/>
</mask>
<g mask="url(#mask0_333_134)">
<path d="M25.1882 0H30.5532V5.30046H35.4619V0H40.8268V16.0452H35.4619V10.6753H30.5532V16.0452H25.1932L25.1882 0ZM47.8776 5.32029H43.1572V0H57.9678V5.32029H53.2425V16.0452H47.8776V5.32029ZM60.318 0H65.911L69.3521 5.63763L72.7882 0H78.3812V16.0452H73.0411V8.092L69.3521 13.799H69.2579L65.5639 8.09696V16.0452H60.318V0ZM81.0488 0H86.4187V10.7447H93.9554V16.0501H81.0488V0Z" fill="black"/>
<path fill-rule="evenodd" clip-rule="evenodd" d="M25.0198 109.44L14.875 23.3884H104.125L93.9753 109.43L59.4504 119L25.0198 109.44ZM45.5324 62.3361L44.5705 51.527H84.9561L85.8982 40.9756H33.0423L35.8884 72.8924H72.466L71.2413 86.5774L59.4703 89.7607H59.4603L47.7091 86.5873L46.9554 78.173H36.3545L37.8321 94.7438L59.4504 100.743L81.1035 94.7438L83.7413 65.1723L83.9991 62.3411L45.5324 62.3361Z" fill="black"/>
</g>
</g>
<defs>
<clipPath id="clip0_333_134">
<rect width="119" height="119" fill="white"/>
</clipPath>
</defs>
</svg>
