<svg width="141" height="135" viewBox="0 0 141 135" fill="none" xmlns="http://www.w3.org/2000/svg">
<path d="M93.6065 57.0544V87.1875H85.593V57.0544H93.6065ZM85.1406 48.6394C85.1406 46.2882 86.9443 44.4938 89.5939 44.4938C92.314 44.4938 93.9943 46.2882 94.0589 48.6394C94.0589 50.9288 92.3081 52.7232 89.5351 52.7232C86.8855 52.7232 85.1406 50.9288 85.1406 48.6394Z" fill="black"/>
<path fill-rule="evenodd" clip-rule="evenodd" d="M74.2248 87.1875L70.2827 75.3694H56.4529L52.7047 87.1875H44.4973L58.4563 45.4838H68.6024L82.7553 87.1875H74.2248ZM61.1059 59.3438L57.7454 69.615H68.9256L65.5004 59.3438C64.8189 57.2906 64.2256 55.035 63.6792 52.9706L63.3032 51.5475H63.1739C62.9546 52.38 62.7314 53.2519 62.5042 54.1631C62.0694 55.9069 61.6171 57.7181 61.1059 59.3438Z" fill="black"/>
<path fill-rule="evenodd" clip-rule="evenodd" d="M101.391 15.9356C80.8599 13.7555 60.1402 13.7555 39.6093 15.9356C27.7888 17.2012 18.242 26.1169 16.8555 37.4906C14.4238 57.4291 14.4238 77.5708 16.8555 97.5094C18.242 108.883 27.783 117.799 39.6093 119.064C60.1405 121.24 80.8597 121.24 101.391 119.064C113.211 117.799 122.758 108.883 124.145 97.5094C126.576 77.5708 126.576 57.4291 124.145 37.4906C122.758 26.1169 113.217 17.2012 101.391 15.9356ZM40.5846 24.3169C60.4673 22.2059 80.5328 22.2059 100.416 24.3169C108.229 25.1606 114.486 31.0612 115.397 38.475C117.754 57.7592 117.754 77.2408 115.397 96.525C114.926 100.153 113.191 103.524 110.473 106.092C107.754 108.66 104.211 110.275 100.416 110.677C80.5328 112.789 60.4673 112.789 40.5846 110.677C36.789 110.275 33.2458 108.66 30.5275 106.092C27.8091 103.524 26.0743 100.153 25.6033 96.525C23.2466 77.2408 23.2466 57.7592 25.6033 38.475C26.0743 34.8466 27.8091 31.4763 30.5275 28.9083C33.2458 26.3403 36.789 24.7191 40.5846 24.3169Z" fill="black"/>
</svg>
