<svg width="105" height="105" viewBox="0 0 105 105" fill="none" xmlns="http://www.w3.org/2000/svg">
<path d="M1.64062 0.820312V103.359H104.18V0.820312H1.64062ZM55.8789 88.1943C54.3654 91.2696 51.4763 93.29 48.1286 94.2654C42.9844 95.4466 38.0641 94.7732 34.4039 92.5764C31.9545 91.0736 30.0415 88.7603 28.7429 86.0951L36.5523 81.3127C36.6204 81.3414 36.8255 81.7121 37.0995 82.1912C38.0953 83.8597 38.9542 85.041 40.6424 85.8703C42.3011 86.4363 45.9424 86.7981 47.3484 83.8794C48.2073 82.3946 47.9341 77.6221 47.9341 72.3417C47.9333 64.0443 47.9719 55.7812 47.9719 47.5781H57.5769C57.5769 56.6016 57.6261 65.1476 57.5769 73.9528C57.5974 79.3505 58.0658 84.1624 55.8789 88.1943ZM95.7247 85.4807C92.3861 96.9011 73.7715 97.2718 66.3329 89.7266C64.7612 87.9506 63.776 87.0229 62.8384 84.9729C66.7915 82.699 66.7915 82.699 70.6379 80.4735C72.7273 83.685 74.6591 85.4511 78.1348 86.1738C82.8499 86.7497 87.5938 85.1296 86.5298 80.1216C85.4364 76.0315 76.8748 75.0364 71.0481 70.6625C65.1328 66.6898 63.7465 57.0363 68.6077 51.5205C70.2278 49.4804 72.9906 47.9579 75.8896 47.2262L78.9149 46.8349C84.7235 46.7176 88.3542 48.2516 91.0194 51.2277C91.761 51.9791 92.3664 52.7896 93.4984 54.5459C90.4042 56.5179 90.414 56.499 85.9819 59.3685C85.0352 57.3292 83.4643 56.0495 81.804 55.4933C79.2266 54.7124 75.9765 55.5614 75.3022 58.2848C75.0684 59.124 75.1168 59.905 75.4884 61.2913C76.5327 63.6727 80.0371 64.7079 83.1805 66.1525C92.2294 69.8225 95.285 73.7576 96.0364 78.4416C96.76 82.4742 95.8617 85.0902 95.7247 85.4807Z" fill="black"/>
</svg>
