<svg width="52" height="52" viewBox="0 0 52 52" fill="none" xmlns="http://www.w3.org/2000/svg">
<path d="M39.728 39.7345H33.9538V30.6843C33.9538 28.5263 33.9105 25.7487 30.9422 25.7487C27.9327 25.7487 27.4733 28.0973 27.4733 30.5262V39.7345H21.697V21.125H27.2437V23.66H27.3195C28.0952 22.1997 29.9802 20.6548 32.7968 20.6548C38.6468 20.6548 39.7302 24.5072 39.7302 29.5208L39.728 39.7345ZM15.1753 18.5792C14.7345 18.5797 14.298 18.4933 13.8906 18.3248C13.4833 18.1563 13.1132 17.9091 12.8017 17.5973C12.4901 17.2855 12.2431 16.9153 12.0749 16.5079C11.9066 16.1004 11.8205 15.6638 11.8213 15.223C11.8218 14.5596 12.0189 13.9113 12.3878 13.36C12.7567 12.8087 13.2808 12.3791 13.8938 12.1256C14.5068 11.8722 15.1813 11.8062 15.8318 11.936C16.4823 12.0659 17.0797 12.3857 17.5485 12.8551C18.0173 13.3244 18.3363 13.9223 18.4653 14.573C18.5943 15.2237 18.5274 15.898 18.2732 16.5107C18.0189 17.1234 17.5887 17.6469 17.0369 18.0151C16.4851 18.3833 15.8365 18.5796 15.1732 18.5792M18.0678 39.7345H12.2785V21.125H18.07L18.0678 39.7345ZM42.6183 6.5H9.38167C7.787 6.5 6.5 7.75667 6.5 9.31017V42.6898C6.5 44.2433 7.787 45.5 9.37733 45.5H42.6118C44.2 45.5 45.5 44.2433 45.5 42.6898V9.31017C45.5 7.75883 44.2 6.5 42.6097 6.5H42.6183Z" fill="black"/>
</svg>
