<svg width="139" height="139" viewBox="0 0 139 139" fill="none" xmlns="http://www.w3.org/2000/svg">
<path fill-rule="evenodd" clip-rule="evenodd" d="M52.6753 89.7708H44.9028V47.4047C47.706 46.8951 51.5922 46.5128 56.88 46.5128C62.6138 46.5128 66.8185 47.7233 69.5637 50.0168C72.1121 52.1191 73.7627 55.4957 73.7627 59.5093C73.7627 63.5866 72.4885 66.9632 70.0676 69.2567C66.9459 72.3784 62.0404 73.8437 56.4978 73.8437C55.0325 73.8437 53.6946 73.78 52.6753 73.5889V89.7708ZM57.1985 52.5014C55.0325 52.5014 53.5035 52.6925 52.681 52.8836V67.4091C53.6309 67.664 54.905 67.7277 56.5035 67.7277C62.3589 67.7277 65.9266 64.8608 65.9266 59.8279C65.9266 55.0497 62.6138 52.5014 57.1985 52.5014Z" fill="black"/>
<path d="M83.7765 90.4716C80.0119 90.4716 76.6412 89.516 74.3477 88.2418L75.8767 82.5718C77.6605 83.6548 81.0312 84.8016 83.8402 84.8016C87.2804 84.8016 88.8094 83.4 88.8094 81.3613C88.8094 79.2589 87.5353 78.1759 83.7128 76.838C77.6605 74.7356 75.1122 71.4228 75.1759 67.7914C75.1759 62.3125 79.6934 58.0441 86.8982 58.0441C90.3384 58.0441 93.327 58.936 95.1166 59.8916L93.5876 65.4342C91.5817 64.3055 89.3269 63.6926 87.0256 63.6504C84.2224 63.6504 82.6934 64.9883 82.6934 66.8995C82.6934 68.8745 84.1587 69.8301 88.1087 71.2317C93.715 73.2704 96.327 76.1372 96.3907 80.7242C96.3907 86.3306 91.9891 90.4716 83.7765 90.4716Z" fill="black"/>
<path fill-rule="evenodd" clip-rule="evenodd" d="M99.9525 16.4078C79.7128 14.1631 59.287 14.1631 39.0473 16.4078C27.3945 17.7109 17.983 26.8907 16.6162 38.6014C14.2191 59.1307 14.2191 79.8692 16.6162 100.399C17.983 112.109 27.3887 121.289 39.0473 122.592C59.2873 124.832 79.7126 124.832 99.9525 122.592C111.605 121.289 121.017 112.109 122.384 100.399C124.781 79.8692 124.781 59.1307 122.384 38.6014C121.017 26.8907 111.611 17.7109 99.9525 16.4078ZM40.0087 25.0374C59.6095 22.8638 79.3904 22.8638 98.9911 25.0374C106.694 25.9061 112.862 31.9816 113.76 39.615C116.083 59.4706 116.083 79.5294 113.76 99.385C113.296 103.121 111.585 106.591 108.906 109.235C106.226 111.879 102.733 113.543 98.9911 113.957C79.3904 116.13 59.6095 116.13 40.0087 113.957C36.267 113.543 32.7741 111.879 30.0943 109.235C27.4145 106.591 25.7043 103.121 25.24 99.385C22.9167 79.5294 22.9167 59.4706 25.24 39.615C25.7043 35.8791 27.4145 32.4089 30.0943 29.7648C32.7741 27.1208 36.267 25.4515 40.0087 25.0374Z" fill="black"/>
</svg>
